<?xml version="1.0" standalone="no"?>
<!DOCTYPE svg PUBLIC "-//W3C//DTD SVG 20010904//EN"
 "http://www.w3.org/TR/2001/REC-SVG-20010904/DTD/svg10.dtd">
<svg version="1.0" xmlns="http://www.w3.org/2000/svg"
 width="512.000000pt" height="512.000000pt" viewBox="0 0 512.000000 512.000000"
 preserveAspectRatio="xMidYMid meet">
<metadata>
Created by potrace 1.14, written by Peter Selinger 2001-2017
</metadata>
<g transform="translate(0.000000,512.000000) scale(0.100000,-0.100000)"
fill="#000000" stroke="none">
<path d="M2897 4124 c-1 -1 -33 -4 -72 -8 -439 -35 -862 -287 -1111 -662 l-75
-112 -49 19 c-97 37 -249 43 -361 14 -235 -61 -423 -254 -470 -483 l-13 -60
-53 -12 c-189 -42 -398 -185 -518 -355 -116 -165 -168 -325 -169 -520 -1 -148
7 -205 40 -303 116 -347 410 -593 762 -638 32 -4 849 -8 1817 -8 1645 0 1765
1 1837 18 319 72 553 298 634 611 27 106 25 305 -4 409 -78 273 -281 487 -542
571 -30 10 -58 20 -62 24 -4 4 -10 43 -13 86 -31 441 -249 842 -600 1104 -99
74 -155 108 -258 158 -69 33 -217 88 -262 98 -14 3 -37 8 -52 11 -16 3 -46 9
-68 14 -66 14 -328 33 -338 24z"/>
</g>
</svg>
